HIERARCHY
ROOT Hips
{
	OFFSET -0.001795 -0.223333 0.028219
	CHANNELS 6 Xposition Yposition Zposition Zrotation Yrotation Xrotation 
	JOINT LeftUpLeg
	{
		OFFSET 0.069520 -0.091406 -0.006815
		CHANNELS 3 Zrotation Yrotation Xrotation
		JOINT LeftLeg
		{
			OFFSET 0.034277 -0.375199 -0.004496
			CHANNELS 3 Zrotation Yrotation Xrotation
			JOINT LeftFoot
			{
				OFFSET -0.013596 -0.397961 -0.043693
				CHANNELS 3 Zrotation Yrotation Xrotation
				JOINT LeftToe
				{
					OFFSET 0.026358 -0.055791 0.119288
					CHANNELS 3 Zrotation Yrotation Xrotation
					End Site
					{
						OFFSET 0.000000 0.000000 0.000000
					}
				}
			}
		}
	}
	JOINT RightUpLeg
	{
		OFFSET -0.067670 -0.090522 -0.004320
		CHANNELS 3 Zrotation Yrotation Xrotation
		JOINT RightLeg
		{
			OFFSET -0.038290 -0.382569 -0.008850
			CHANNELS 3 Zrotation Yrotation Xrotation
			JOINT RightFoot
			{
				OFFSET 0.015774 -0.398415 -0.042312
				CHANNELS 3 Zrotation Yrotation Xrotation
				JOINT RightToe
				{
					OFFSET -0.025372 -0.048144 0.123348
					CHANNELS 3 Zrotation Yrotation Xrotation
					End Site
					{
						OFFSET 0.000000 0.000000 0.000000
					}
				}
			}
		}
	}
	JOINT Spine
	{
		OFFSET -0.002533 0.108963 -0.026696
		CHANNELS 3 Zrotation Yrotation Xrotation
		JOINT Spine1
		{
			OFFSET 0.005487 0.135180 0.001092
			CHANNELS 3 Zrotation Yrotation Xrotation
			JOINT Spine2
			{
				OFFSET 0.001457 0.052922 0.025425
				CHANNELS 3 Zrotation Yrotation Xrotation
				JOINT Neck
				{
					OFFSET -0.002778 0.213870 -0.042857
					CHANNELS 3 Zrotation Yrotation Xrotation
					JOINT Head
					{
						OFFSET 0.005152 0.064970 0.051349
						CHANNELS 3 Zrotation Yrotation Xrotation
						End Site
						{
							OFFSET 0.000000 0.000000 0.000000
						}
					}
				}
				JOINT LeftShoulder
				{
					OFFSET 0.078845 0.121749 -0.034090
					CHANNELS 3 Zrotation Yrotation Xrotation
					JOINT LeftArm
					{
						OFFSET 0.090977 0.030469 -0.008868
						CHANNELS 3 Zrotation Yrotation Xrotation
						JOINT LeftForeArm
						{
							OFFSET 0.259612 -0.012772 -0.027456
							CHANNELS 3 Zrotation Yrotation Xrotation
							JOINT LeftHand
							{
								OFFSET 0.249234 0.008986 -0.001171
								CHANNELS 3 Zrotation Yrotation Xrotation
								End Site
								{
									OFFSET 0.000000 0.000000 0.000000
								}
							}
						}
					}
				}
				JOINT RightShoulder
				{
					OFFSET -0.081759 0.118833 -0.038615
					CHANNELS 3 Zrotation Yrotation Xrotation
					JOINT RightArm
					{
						OFFSET -0.096012 0.032551 -0.009143
						CHANNELS 3 Zrotation Yrotation Xrotation
						JOINT RightForeArm
						{
							OFFSET -0.253742 -0.013329 -0.021401
							CHANNELS 3 Zrotation Yrotation Xrotation
							JOINT RightHand
							{
								OFFSET -0.255298 0.007772 -0.005559
								CHANNELS 3 Zrotation Yrotation Xrotation
								End Site
								{
									OFFSET 0.000000 0.000000 0.000000
								}
							}
						}
					}
				}
			}
		}
	}
}
MOTION
Frames: 10
Frame Time: 0.050000
-0.036935 1.040820 0.005915 -3.876692 -7.475065 12.559130 5.872893 -0.175652 -1.940636 1.022925 3.484607 -44.180785 8.621995 22.252806 102.996737 0.000000 0.000000 0.000000 -0.322804 0.955233 -9.437597 1.478266 -0.102347 -33.164861 -19.995132 -20.545079 108.825464 0.000000 0.000000 0.000000 -1.356612 1.280150 -19.917513 5.140292 5.332349 -82.376033 -1.144431 5.015088 101.658236 -13.563472 3.846731 -95.654098 0.000000 0.000000 0.000000 -18.268794 7.210829 -0.323667 -61.761309 -10.281009 -22.677982 -164.891263 44.641989 -86.167717 0.000000 0.000000 0.000000 21.702308 0.007219 4.439290 57.117112 22.846582 -15.767093 149.033106 -23.801734 -19.796750 0.000000 0.000000 0.000000 
-0.033771 1.023800 0.007994 -3.383177 -7.238208 12.919826 5.996420 -0.070156 0.750710 2.486648 4.295996 -47.381222 3.989948 21.055353 101.656157 0.000000 0.000000 0.000000 -1.020434 0.959211 -9.628330 2.442499 0.131645 -35.212443 -23.448505 -21.390281 109.529589 0.000000 0.000000 0.000000 -2.112763 1.162466 -19.620096 6.616801 6.221081 -86.130299 -1.958284 6.483922 105.184528 -10.965930 3.660065 -95.854154 0.000000 0.000000 0.000000 -20.964450 8.576996 -0.762826 -56.724062 -10.043307 -24.230631 -168.270196 42.345439 -93.261222 0.000000 0.000000 0.000000 22.276706 -1.843946 4.105258 56.297323 20.592693 -18.243926 150.993733 -26.489881 -27.358628 0.000000 0.000000 0.000000 
-0.029649 1.018935 0.008016 -3.120463 -5.939351 13.055614 5.670722 -0.048973 1.573889 3.684333 4.488680 -48.142088 6.010537 21.346339 103.836426 0.000000 0.000000 0.000000 -2.329047 0.867615 -8.993759 3.001826 0.168211 -38.838144 -24.570404 -21.503400 113.102819 0.000000 0.000000 0.000000 -5.513868 0.688002 -20.064127 14.935219 9.042571 -86.966103 -6.843852 11.900271 107.808998 -15.012516 4.316730 -98.980214 0.000000 0.000000 0.000000 -20.192452 8.040710 -0.841172 -56.182305 -11.994139 -24.389828 -165.937468 43.714869 -90.296649 0.000000 0.000000 0.000000 20.429624 -3.141135 3.911368 58.022613 20.515730 -19.326887 152.651316 -28.824493 -29.208777 0.000000 0.000000 0.000000 
-0.026825 1.026134 0.006406 -2.597681 -2.355470 12.589403 7.315165 -0.244199 -1.368474 1.956388 2.732127 -44.149091 6.199343 20.515419 103.813797 0.000000 0.000000 0.000000 -1.533459 0.879187 -9.150564 1.457592 -0.837242 -38.848624 -23.524524 -22.574326 112.110353 0.000000 0.000000 0.000000 -7.393077 0.151381 -17.566324 15.855004 10.012578 -95.201983 -9.198987 12.982541 113.701169 -17.117393 5.637307 -96.072853 0.000000 0.000000 0.000000 -18.529522 8.514828 -1.025339 -56.907066 -13.421320 -25.574315 -165.157518 44.444223 -84.112054 0.000000 0.000000 0.000000 19.251550 -1.969647 4.614082 57.909611 18.077325 -22.059521 154.642979 -28.910508 -30.257989 0.000000 0.000000 0.000000 
-0.025647 1.037457 0.005524 -2.532247 -2.219545 11.757499 5.954465 -0.279209 -2.894927 4.349513 2.893413 -39.566940 -2.275787 17.773647 96.263770 0.000000 0.000000 0.000000 0.123775 0.922076 -9.096272 2.249289 -0.648562 -37.216695 -19.994601 -22.113272 110.048707 0.000000 0.000000 0.000000 -6.238341 0.229883 -16.913981 12.890997 7.838698 -90.758746 -7.590639 10.084364 109.594509 -19.164019 5.365282 -96.920999 0.000000 0.000000 0.000000 -17.672718 6.398685 0.083193 -59.479171 -15.831092 -22.606965 -159.213899 41.719976 -66.209831 0.000000 0.000000 0.000000 21.825061 -3.732655 3.771357 55.742270 15.117985 -22.178145 157.136679 -28.134963 -41.379737 0.000000 0.000000 0.000000 
-0.025520 1.040247 0.007075 -2.425592 -2.909654 11.582906 4.484268 -0.275471 -3.007165 6.002499 3.166780 -37.623712 -2.184625 17.868816 95.571185 0.000000 0.000000 0.000000 1.059126 0.734063 -7.183666 3.376193 -0.241471 -38.964232 -22.137329 -22.629550 108.174421 0.000000 0.000000 0.000000 -7.190371 0.159811 -20.534766 22.289336 7.735259 -74.726869 -12.595295 17.014919 96.074796 -13.662299 4.515491 -97.165879 0.000000 0.000000 0.000000 -19.972995 6.472904 -1.755172 -54.541349 -16.751751 -18.174600 -156.975664 37.081049 -75.026308 0.000000 0.000000 0.000000 28.076194 -2.674506 6.114023 52.077510 15.503272 -18.431783 157.772486 -26.925418 -51.545325 0.000000 0.000000 0.000000 
-0.026055 1.034923 0.008643 -1.940386 -2.797728 11.231413 4.063923 -0.258324 -2.675242 5.694270 3.206142 -38.772353 3.410904 19.703471 99.444691 0.000000 0.000000 0.000000 0.302923 0.681374 -6.787404 3.519500 -0.221496 -40.020897 -20.899797 -22.130458 110.217293 0.000000 0.000000 0.000000 -10.768381 -0.288237 -19.767690 25.646129 9.934049 -79.544442 -14.141578 17.714624 100.623907 -13.481643 4.829982 -97.569450 0.000000 0.000000 0.000000 -20.671131 6.838331 -1.344208 -53.859489 -18.618599 -18.953700 -159.466327 39.143050 -79.791420 0.000000 0.000000 0.000000 26.459569 -4.427973 5.005805 52.536388 13.194130 -20.911846 163.984909 -29.860108 -74.238206 0.000000 0.000000 0.000000 
-0.026052 1.030764 0.008940 -2.313043 -3.034297 10.940531 4.907374 -0.250227 -2.623987 5.518720 3.118422 -38.038322 -0.586902 18.781582 99.041599 0.000000 0.000000 0.000000 1.707635 0.721556 -6.992112 2.729334 -0.376037 -38.926567 -17.417738 -21.334992 109.438015 0.000000 0.000000 0.000000 -7.726280 0.089892 -20.814779 18.962274 7.774585 -78.931825 -11.685728 14.098149 103.524690 -15.471092 4.421130 -101.692590 0.000000 0.000000 0.000000 -23.230485 8.095689 -1.114423 -52.029024 -21.064257 -19.150128 -159.733801 37.351385 -71.223437 0.000000 0.000000 0.000000 28.731700 -2.825967 5.908049 51.747799 14.145112 -21.528744 165.907318 -30.029104 -80.535636 0.000000 0.000000 0.000000 
-0.024193 1.031540 0.006961 -1.043880 -0.065636 11.213007 4.935733 -0.382477 -4.676907 2.047752 1.850616 -37.585480 4.312387 19.503995 104.220685 0.000000 0.000000 0.000000 1.169490 1.062584 -10.074629 -0.219552 -1.398032 -34.032492 -14.225700 -21.404074 111.774213 0.000000 0.000000 0.000000 -7.666973 -0.135241 -19.383546 10.679621 5.641291 -85.873142 -8.932680 6.914502 109.297639 -20.236574 4.892844 -101.317347 0.000000 0.000000 0.000000 -24.948469 6.600494 1.471099 -51.355803 -24.205916 -19.682675 -162.597176 37.040925 -70.401937 0.000000 0.000000 0.000000 25.595729 -3.744897 4.169787 57.387879 14.317250 -23.743574 168.719880 -31.837059 -79.481572 0.000000 0.000000 0.000000 
-0.019979 1.038921 0.005097 -1.723109 1.485421 11.096219 5.816763 -0.401807 -4.870321 0.964892 1.401349 -38.177972 6.770237 19.586175 106.008947 0.000000 0.000000 0.000000 0.662287 1.250910 -12.149341 -0.502983 -1.420829 -29.998130 -13.850286 -21.854105 112.413313 0.000000 0.000000 0.000000 -4.489255 0.143043 -18.951161 1.833310 2.362544 -91.395062 -6.103467 0.087023 115.005478 -14.996871 4.353790 -101.848097 0.000000 0.000000 0.000000 -24.764819 6.609647 2.781102 -52.593917 -24.957960 -21.297383 -165.003302 37.247172 -66.890599 0.000000 0.000000 0.000000 23.310527 -4.207611 2.787013 58.882795 11.417472 -27.244544 172.528878 -34.234733 -92.686751 0.000000 0.000000 0.000000 
